<svg xmlns="http://www.w3.org/2000/svg" viewBox="0 0 3150 1650">
	<g transform="scale(7.389162561576355) translate(10, 10)">
		<g id="icon" transform="matrix(28.468398683214307,0,0,28.468398683214307,-23.45796054211817,30.570507490045706)" fill="#000"><g xmlns="http://www.w3.org/2000/svg"><path d="M3.726,1.855C3.44,2.127,3.042,2.237,2.661,2.292c-0.34,0.05-0.695,0.071-0.999,0.203C1.344,2.634,1.144,2.864,1.16,3.22   c0.01,0.214,0.125,0.423,0.287,0.584C1.492,3.84,1.538,3.874,1.586,3.905C1.583,3.899,1.58,3.892,1.575,3.886   C1.382,3.621,1.232,2.862,2.242,2.697C2.445,2.664,2.648,2.63,2.85,2.584c0.178-0.041,0.496-0.141,0.531-0.16   c0.029-0.017-0.189,0.228-0.857,0.42C1.463,3.149,1.789,4.03,2.113,4.131C2.237,4.161,2.367,4.176,2.5,4.176   c0.926,0,1.677-0.75,1.677-1.676c0-0.333-0.097-0.643-0.264-0.903C3.868,1.695,3.805,1.779,3.726,1.855z"/><path d="M0.824,2.5c0,0.184,0.03,0.359,0.084,0.525c0.02-0.182,0.082-0.354,0.198-0.5c0.21-0.267,0.536-0.392,0.875-0.459   C2.319,2,2.679,1.992,3.026,1.908c0.192-0.046,0.387-0.121,0.542-0.244C3.697,1.56,3.757,1.402,3.623,1.255   C3.574,1.211,3.522,1.169,3.468,1.131c0.098,0.201,0.022,0.5-0.773,0.578C2.491,1.73,2.288,1.749,2.087,1.777   C2.028,1.785,1.955,1.796,1.88,1.809c0,0,0.066-0.082,0.532-0.188c0.958-0.216,0.779-0.633,0.495-0.748   c-0.13-0.032-0.267-0.05-0.407-0.05C1.574,0.824,0.824,1.574,0.824,2.5z"/></g></g>
		<g id="divider" transform="matrix(1,0,0,1,405,0)" fill="#591655"><rect y="0" x="-290" width="3" height="202"/></g>
		<g id="satiety-ai" transform="matrix(2.184008417310273,0,0,2.184008417310273,130.36633507215748,38.59483673025301)" fill="#591655"><path d="M5.06 20.32 c-1.66 0 -4.06 -0.76 -3.84 -1.6 l0.18 -0.7 c0.54 -1.94 1.14 0.98 4.44 0.98 c1.74 0 2.72 -0.84 2.72 -2.1 c0 -1.04 -0.76 -1.5 -2.04 -2.26 l-2.24 -1.36 c-2.04 -1.24 -2.84 -2.12 -2.84 -3.5 c0 -2.38 2.28 -4.1 4.82 -4.1 c1.54 0 3.42 0.64 3.22 1.32 l-0.24 0.74 c-0.56 1.8 -1.08 -0.76 -3.82 -0.76 c-1.54 0 -2.32 0.8 -2.32 1.88 c0 0.88 0.54 1.4 1.88 2.22 l2.34 1.4 c2.04 1.22 2.86 2.14 2.86 3.52 c0 2.44 -2.44 4.32 -5.12 4.32 z M26.68 19.36 c0.28 0.04 0.2 0.64 -0.04 0.64 l-4.98 0 c-0.26 0 -0.3 -0.6 -0.06 -0.64 c0.76 -0.12 1.52 -0.42 0.78 -2.16 l-0.3 -0.7 c-0.18 -0.46 -0.62 -0.48 -1.26 -0.48 l-4.16 0 c-0.6 0 -1.04 0.02 -1.22 0.48 l-0.28 0.7 c-0.74 1.78 0.02 2.02 1.02 2.16 c0.24 0.04 0.2 0.64 -0.06 0.64 l-4.22 0 c-0.26 0 -0.32 -0.6 -0.06 -0.64 c0.84 -0.12 1.32 -0.44 2.06 -2.16 l3.38 -7.7 c0.78 -1.76 1.02 -2.64 1.02 -3.4 c0 -0.12 1.42 -0.44 1.48 -0.3 l4.88 11.38 c0.74 1.74 1.22 2.06 2.02 2.18 z M20.82 15 c0.3 0 0.64 -0.04 0.52 -0.3 l-2.56 -6.08 l-2.56 6.08 c-0.12 0.26 0.2 0.3 0.5 0.3 l4.1 0 z M31.2 20 c-0.18 0 -0.3 -0.58 -0.14 -0.6 c1.36 -0.16 2.28 -0.46 2.28 -1.54 l0 -10.02 c0 -0.48 -0.16 -0.64 -0.64 -0.64 l-0.64 0 c-2.02 0 -2.92 0.34 -3.38 1.3 c-0.18 0.36 -0.78 0.3 -0.72 0 c0.16 -0.78 0.32 -1.32 0.44 -2.34 c0.04 -0.34 0.28 -0.32 0.62 -0.28 c0.76 0.08 1.76 0.12 5.46 0.12 s5.18 -0.04 5.94 -0.12 c0.36 -0.04 0.7 -0.06 0.58 0.28 c-0.28 0.92 -0.48 1.58 -0.6 2.34 c-0.06 0.34 -0.56 0.32 -0.62 0 c-0.2 -0.94 -1.02 -1.3 -2.8 -1.3 l-0.72 0 c-0.48 0 -0.76 0.16 -0.76 0.64 l0 10.02 c0 1.08 0.94 1.38 2.28 1.54 c0.16 0.02 0.04 0.6 -0.14 0.6 l-6.44 0 z M42.62 20 c-0.16 0 -0.28 -0.6 -0.12 -0.62 c0.98 -0.14 1.68 -0.5 1.68 -1.8 l0 -9.16 c0 -1.3 -0.7 -1.66 -1.68 -1.8 c-0.16 -0.02 -0.04 -0.62 0.12 -0.62 l5.18 0 c0.16 0 0.28 0.6 0.12 0.62 c-0.86 0.12 -1.66 0.4 -1.66 1.8 l0 9.16 c0 1.4 0.8 1.68 1.66 1.8 c0.16 0.02 0.04 0.62 -0.12 0.62 l-5.18 0 z M49.5 20.04 c-0.2 0.02 -0.28 -0.6 -0.12 -0.64 c1.18 -0.3 2.08 -0.48 2.08 -1.96 l0 -8.96 c0 -1.34 -0.82 -1.68 -1.7 -1.9 c-0.16 -0.04 -0.08 -0.64 0.12 -0.62 c1.46 0.12 3.6 0.12 5.08 0.12 c1.82 0 3.18 -0.08 4.76 -0.12 c0.46 0 0.46 0.32 0.36 0.76 l-0.5 1.9 c-0.06 0.26 -0.54 0.26 -0.62 0 c-0.28 -0.94 -0.92 -1.6 -3.46 -1.6 c-1.5 0 -1.96 0.36 -1.96 1.46 l0 3.32 c0 0.52 0.26 0.62 0.66 0.62 l0.38 0 c1.78 0 3.12 -0.12 4 -0.96 c0.18 -0.18 0.6 -0.14 0.44 0.24 l-1.18 2.52 c-0.14 0.34 -0.42 0.3 -0.64 0 c-0.48 -0.62 -1.52 -0.86 -2.78 -0.86 l-0.22 0 c-0.4 0 -0.66 0.1 -0.66 0.62 l0 3.46 c0 1.16 0.52 1.54 2.24 1.54 c3.24 0 4.28 -1.3 4.78 -2.14 c0.16 -0.26 0.64 -0.2 0.64 0.18 c0 1.1 -0.84 3 -2.06 3.02 c-0.96 -0.06 -2.24 -0.12 -3.96 -0.12 c-1.84 0 -3.84 -0.06 -5.68 0.12 z M65.84 20 c-0.18 0 -0.3 -0.58 -0.14 -0.6 c1.36 -0.16 2.28 -0.46 2.28 -1.54 l0 -10.02 c0 -0.48 -0.16 -0.64 -0.64 -0.64 l-0.64 0 c-2.02 0 -2.92 0.34 -3.38 1.3 c-0.18 0.36 -0.78 0.3 -0.72 0 c0.16 -0.78 0.32 -1.32 0.44 -2.34 c0.04 -0.34 0.28 -0.32 0.62 -0.28 c0.76 0.08 1.76 0.12 5.46 0.12 s5.18 -0.04 5.94 -0.12 c0.36 -0.04 0.7 -0.06 0.58 0.28 c-0.28 0.92 -0.48 1.58 -0.6 2.34 c-0.06 0.34 -0.56 0.32 -0.62 0 c-0.2 -0.94 -1.02 -1.3 -2.8 -1.3 l-0.72 0 c-0.48 0 -0.76 0.16 -0.76 0.64 l0 10.02 c0 1.08 0.94 1.38 2.28 1.54 c0.16 0.02 0.04 0.6 -0.14 0.6 l-6.44 0 z M90.48 6 c0.24 0 0.3 0.58 0.06 0.62 c-0.8 0.12 -1.48 0.72 -2.4 2.18 l-3.28 5.14 l0 3.64 c0 1.4 0.82 1.64 2.06 1.8 c0.14 0.02 0.04 0.62 -0.12 0.62 l-5.96 0 c-0.16 0 -0.26 -0.6 -0.12 -0.62 c1.3 -0.16 2.08 -0.42 2.08 -1.8 l0 -3.6 l-3.42 -5.16 c-0.94 -1.42 -1.5 -2.06 -2.36 -2.2 c-0.26 -0.04 -0.2 -0.62 0.06 -0.62 l4.98 0 c0.26 0 0.3 0.58 0.06 0.62 c-0.9 0.14 -1.26 0.86 -0.38 2.18 l2.66 3.96 l2.56 -3.96 c0.86 -1.34 0.38 -2 -0.72 -2.18 c-0.26 -0.04 -0.2 -0.62 0.06 -0.62 l4.18 0 z M110.7 19.36 c0.28 0.04 0.2 0.64 -0.04 0.64 l-4.98 0 c-0.26 0 -0.3 -0.6 -0.06 -0.64 c0.76 -0.12 1.52 -0.42 0.78 -2.16 l-0.3 -0.7 c-0.18 -0.46 -0.62 -0.48 -1.26 -0.48 l-4.16 0 c-0.6 0 -1.04 0.02 -1.22 0.48 l-0.28 0.7 c-0.74 1.78 0.02 2.02 1.02 2.16 c0.24 0.04 0.2 0.64 -0.06 0.64 l-4.22 0 c-0.26 0 -0.32 -0.6 -0.06 -0.64 c0.84 -0.12 1.32 -0.44 2.06 -2.16 l3.38 -7.7 c0.78 -1.76 1.02 -2.64 1.02 -3.4 c0 -0.12 1.42 -0.44 1.48 -0.3 l4.88 11.38 c0.74 1.74 1.22 2.06 2.02 2.18 z M104.84 15 c0.3 0 0.64 -0.04 0.52 -0.3 l-2.56 -6.08 l-2.56 6.08 c-0.12 0.26 0.2 0.3 0.5 0.3 l4.1 0 z M112.38 20 c-0.16 0 -0.28 -0.6 -0.12 -0.62 c0.98 -0.14 1.68 -0.5 1.68 -1.8 l0 -9.16 c0 -1.3 -0.7 -1.66 -1.68 -1.8 c-0.16 -0.02 -0.04 -0.62 0.12 -0.62 l5.18 0 c0.16 0 0.28 0.6 0.12 0.62 c-0.86 0.12 -1.66 0.4 -1.66 1.8 l0 9.16 c0 1.4 0.8 1.68 1.66 1.8 c0.16 0.02 0.04 0.62 -0.12 0.62 l-5.18 0 z"/></g>
		<g id="ai-satisfaction" transform="matrix(2.593267872389059,0,0,2.593267872389059,131.65150075582034,100.25113960421339)" fill="#000"><path d="M0.52 20 l0.98 -18.68 l2.82 0 l0.98 18.68 l-1.54 0 l-0.2 -3.9 l-0.28 0.4 q-0.52 0.72 -0.76 1.16 t-0.32 0.85 t-0.12 1.11 l-0.02 0.38 l-1.54 0 z M3.16 13.52 q0.18 -0.5 0.18 -1.42 l-0.44 -8.28 l-0.58 11.14 q0.66 -0.94 0.84 -1.44 z M8.3875 1.32 l0 18.68 l-1.66 0 l0 -18.68 l1.66 0 z M15.9425 8.22 q0.24 0.6 1.04 1.7 q0.8 1.12 1.16 1.74 t0.52 1.29 t0.16 1.71 l0 3.04 q0 2.3 -2.24 2.3 l-0.3 0 q-1.2 0 -1.72 -0.61 t-0.52 -1.69 l0 -4.66 l1.66 0 l0 4.44 q0 0.4 0.15 0.63 t0.57 0.23 t0.58 -0.23 t0.16 -0.63 l0 -3.06 q0 -0.92 -0.25 -1.5 t-1.05 -1.7 q-0.8 -1.1 -1.16 -1.74 t-0.51 -1.32 t-0.15 -1.72 l0 -3.08 q0 -1.1 0.52 -1.7 t1.72 -0.6 l0.3 0 q2.24 0 2.24 2.3 l0 4.7 l-1.66 0 l0 -4.48 q0 -0.4 -0.16 -0.63 t-0.58 -0.23 t-0.57 0.23 t-0.15 0.63 l0 3.08 q0 0.96 0.24 1.56 z M20.17 20 l0.98 -18.68 l2.82 0 l0.98 18.68 l-1.54 0 l-0.2 -3.9 l-0.28 0.4 q-0.52 0.72 -0.76 1.16 t-0.32 0.85 t-0.12 1.11 l-0.02 0.38 l-1.54 0 z M22.81 13.52 q0.18 -0.5 0.18 -1.42 l-0.44 -8.28 l-0.58 11.14 q0.66 -0.94 0.84 -1.44 z M31.1575 2.98 l-1.56 0 l0 17.02 l-1.66 0 l0 -17.02 l-1.56 0 l0 -1.66 l4.78 0 l0 1.66 z M34.245 1.32 l0 18.68 l-1.66 0 l0 -18.68 l1.66 0 z M37.5725 8.22 q0.24 0.6 1.04 1.7 q0.8 1.12 1.16 1.74 t0.52 1.29 t0.16 1.71 l0 3.04 q0 2.3 -2.24 2.3 l-0.3 0 q-1.2 0 -1.72 -0.61 t-0.52 -1.69 l0 -4.66 l1.66 0 l0 4.44 q0 0.4 0.15 0.63 t0.57 0.23 t0.58 -0.23 t0.16 -0.63 l0 -3.06 q0 -0.92 -0.25 -1.5 t-1.05 -1.7 q-0.8 -1.1 -1.16 -1.74 t-0.51 -1.32 t-0.15 -1.72 l0 -3.08 q0 -1.1 0.52 -1.7 t1.72 -0.6 l0.3 0 q2.24 0 2.24 2.3 l0 4.7 l-1.66 0 l0 -4.48 q0 -0.4 -0.16 -0.63 t-0.58 -0.23 t-0.57 0.23 t-0.15 0.63 l0 3.08 q0 0.96 0.24 1.56 z M43.54 3 l0 6.82 l1.46 0 l0 1.68 l-1.46 0 l0 8.5 l-1.66 0 l0 -18.68 l3.12 0 l0 1.68 l-1.46 0 z M46.3475 20 l0.98 -18.68 l2.82 0 l0.98 18.68 l-1.54 0 l-0.2 -3.9 l-0.28 0.4 q-0.52 0.72 -0.76 1.16 t-0.32 0.85 t-0.12 1.11 l-0.02 0.38 l-1.54 0 z M48.9875 13.52 q0.18 -0.5 0.18 -1.42 l-0.44 -8.28 l-0.58 11.14 q0.66 -0.94 0.84 -1.44 z M57.335 13 l0 4.7 q0 2.3 -2.24 2.3 l-0.3 0 q-1.2 0 -1.72 -0.61 t-0.52 -1.69 l0 -14.34 q0 -1.1 0.52 -1.7 t1.72 -0.6 l0.3 0 q2.24 0 2.24 2.3 l0 4.7 l-1.66 0 l0 -4.48 q0 -0.4 -0.16 -0.63 t-0.58 -0.23 t-0.57 0.23 t-0.15 0.63 l0 13.9 q0 0.4 0.15 0.63 t0.57 0.23 t0.58 -0.23 t0.16 -0.63 l0 -4.48 l1.66 0 z M63.5425 2.98 l-1.56 0 l0 17.02 l-1.66 0 l0 -17.02 l-1.56 0 l0 -1.66 l4.78 0 l0 1.66 z M66.63 1.32 l0 18.68 l-1.66 0 l0 -18.68 l1.66 0 z M72.8375 3.36 l0 14.34 q0 2.3 -2.24 2.3 l0.88 0 l-1.18 0 q-1.2 0 -1.72 -0.61 t-0.52 -1.69 l0 -14.34 q0 -1.1 0.52 -1.7 t1.72 -0.6 l0.98 0 l-0.68 0 q2.24 0 2.24 2.3 z M71.1775 3.58 q0 -0.4 -0.16 -0.63 t-0.58 -0.23 t-0.57 0.23 t-0.15 0.63 l0 13.9 q0 0.4 0.15 0.63 t0.57 0.23 t0.58 -0.23 t0.16 -0.63 l0 -13.9 z M79.045 1.32 l0 18.68 l-1.62 0 l-1.58 -10.26 l0 10.26 l-1.58 0 l0 -18.68 l1.58 0 l1.58 10.1 l0 -10.1 l1.62 0 z"/></g>
	</g>
</svg>